<?xml version="1.0" standalone="no"?>
<!DOCTYPE svg PUBLIC "-//W3C//DTD SVG 20010904//EN"
 "http://www.w3.org/TR/2001/REC-SVG-20010904/DTD/svg10.dtd">
<svg version="1.0" xmlns="http://www.w3.org/2000/svg"
 width="800.000000pt" height="800.000000pt" viewBox="0 0 800.000000 800.000000"
 preserveAspectRatio="xMidYMid meet">
<metadata>
Created by potrace 1.14, written by Peter Selinger 2001-2017
</metadata>
<g transform="translate(0.000000,800.000000) scale(0.100000,-0.100000)"
fill="#000000" stroke="none">
<path d="M474 7983 c-3 -10 -10 -26 -15 -35 -13 -25 -11 -38 5 -38 49 0 90
-96 46 -107 -11 -3 -21 -9 -21 -14 -1 -5 -3 -13 -4 -19 -1 -5 -3 -14 -4 -19 0
-5 -10 -11 -20 -14 -11 -2 -21 -15 -23 -28 -2 -19 -9 -24 -33 -25 -29 -1 -86
23 -94 39 -1 4 -11 16 -21 25 -10 9 -21 33 -25 52 -10 47 -45 71 -45 31 0 -23
-19 -38 -29 -24 -3 5 -14 12 -23 16 -12 4 -16 12 -12 24 5 13 2 11 -10 -4 -10
-13 -28 -23 -42 -23 -17 0 -24 -5 -24 -20 0 -21 -34 -45 -50 -35 -6 3 -10 16
-10 28 0 16 -3 18 -12 9 -10 -10 -10 -17 -1 -31 9 -14 9 -29 3 -53 -15 -49
-13 -93 3 -81 6 5 32 15 57 22 25 8 52 16 60 19 8 3 30 7 48 9 29 3 32 1 32
-23 0 -15 -8 -33 -17 -40 -17 -13 -17 -13 0 -14 22 0 15 -32 -14 -64 -11 -11
-19 -28 -19 -37 0 -10 -6 -20 -12 -22 -8 -3 -6 -6 5 -6 19 -1 23 -16 7 -26
-13 -8 -13 -65 0 -65 6 0 11 10 11 23 1 20 2 20 6 2 9 -35 22 -44 61 -38 20 3
43 10 50 16 8 6 17 5 27 -3 13 -11 15 -43 13 -209 l-3 -196 -72 -3 -73 -3 0
-43 0 -44 -80 1 c-76 0 -81 2 -86 24 -9 34 1 51 33 55 15 2 26 8 24 13 -2 6
-12 9 -22 7 -11 -2 -20 5 -24 18 -9 30 4 39 21 16 13 -18 14 -17 14 18 0 32
-3 36 -18 31 -15 -4 -21 2 -29 27 -9 27 -11 8 -12 -99 -1 -127 0 -131 19 -126
32 9 141 -19 136 -34 -3 -7 -1 -13 4 -13 5 0 11 8 13 18 3 9 5 -76 6 -190 l1
-208 -37 -1 c-21 -1 -44 0 -52 1 -8 1 -25 -4 -38 -11 -20 -11 -25 -10 -38 7
-14 18 -14 17 -15 -13 0 -38 2 -39 35 -17 14 9 36 14 50 12 14 -3 28 -1 31 4
3 5 24 8 47 7 47 -1 112 8 142 21 11 5 52 13 90 19 39 5 90 15 115 21 25 6 60
14 78 17 l32 5 0 -148 c0 -82 -3 -173 -7 -202 -6 -51 -8 -54 -50 -73 -25 -11
-52 -18 -60 -15 -9 4 -22 1 -30 -6 -11 -9 -58 -12 -154 -12 -77 0 -139 -3
-139 -8 0 -5 -10 -9 -23 -8 -12 1 -52 2 -89 1 l-68 -1 0 -50 c0 -40 3 -48 15
-44 8 4 15 12 15 20 0 8 7 14 16 14 9 0 14 -6 11 -14 -4 -9 4 -13 24 -14 17 0
29 5 29 11 0 14 55 38 64 29 3 -3 6 -36 6 -74 0 -62 -2 -68 -21 -68 -15 0 -19
-4 -15 -16 3 -9 6 -20 6 -25 0 -5 7 -9 15 -9 20 0 20 -39 0 -46 -8 -4 -15 -17
-15 -31 0 -16 -7 -27 -20 -30 -23 -6 -26 -19 -7 -26 6 -3 -1 -6 -16 -6 -16 -1
-26 3 -23 8 13 21 -7 70 -33 80 -17 6 -20 10 -8 10 21 1 24 41 2 41 -8 0 -16
8 -17 18 0 9 -2 22 -2 29 -1 7 -6 17 -13 24 -9 9 -12 -151 -13 -674 0 -398 3
-688 8 -691 13 -8 17 -519 5 -539 -3 -4 2 -16 10 -25 9 -9 17 -30 19 -47 3
-28 6 -30 43 -31 22 -1 53 -2 68 -3 l29 -1 -6 -147 c-3 -82 -6 -157 -6 -168
-1 -11 2 -37 6 -58 4 -24 2 -48 -6 -62 -9 -17 -10 -35 -2 -72 8 -34 8 -61 0
-91 -9 -37 -14 -42 -38 -42 -16 0 -51 -5 -79 -12 l-51 -11 0 -810 0 -810 20
18 c20 18 21 18 48 -7 15 -14 45 -29 67 -33 22 -4 34 -10 27 -12 -17 -7 -15
-33 3 -33 8 0 15 -7 15 -15 0 -8 -7 -15 -15 -15 -8 0 -15 -7 -15 -15 0 -8 7
-15 15 -15 10 0 15 -10 15 -34 0 -35 -15 -46 -69 -46 -16 0 -21 -4 -17 -15 3
-10 -3 -17 -19 -21 -49 -12 -76 18 -33 36 21 8 20 9 -9 9 -26 1 -33 -3 -33
-19 0 -11 9 -25 19 -32 15 -9 17 -16 10 -25 -14 -16 -3 -34 16 -27 17 7 37
-29 29 -51 -5 -13 -14 -15 -40 -10 -34 6 -34 6 -34 -34 0 -35 3 -40 29 -46 17
-3 31 -14 34 -26 3 -13 14 -19 31 -19 20 0 29 -8 40 -32 20 -47 2 -63 -72 -63
l-57 0 -3 -104 c-2 -77 1 -107 10 -113 9 -5 9 -11 3 -15 -6 -5 -12 -23 -14
-41 -2 -31 -1 -32 23 -26 16 4 26 2 26 -5 0 -6 -11 -11 -25 -11 -22 0 -25 -4
-25 -35 0 -24 5 -35 15 -35 8 0 15 -4 15 -10 0 -5 -7 -10 -15 -10 -13 0 -15
-28 -15 -189 0 -142 3 -191 13 -194 9 -4 9 -6 0 -6 -10 -1 -13 -29 -13 -106
l0 -105 609 0 c335 0 617 3 625 6 15 6 15 8 -1 19 -17 13 -17 15 5 37 12 14
22 32 22 42 0 15 6 18 33 13 27 -4 33 -2 32 11 -2 24 -17 47 -40 60 -17 10
-13 11 28 12 26 0 47 5 47 11 0 5 -5 7 -11 4 -17 -11 -59 4 -59 21 0 8 -7 17
-15 20 -24 10 -17 27 8 19 27 -8 24 -8 124 0 52 5 88 3 100 -4 16 -9 16 -10 1
-11 -23 0 -48 -28 -42 -45 5 -12 25 -15 87 -15 54 0 86 -4 96 -14 21 -18 81
-31 81 -17 0 5 21 9 48 9 26 0 75 2 110 5 51 5 62 4 62 -8 0 -8 7 -15 15 -15
8 0 15 7 15 15 0 7 7 18 17 23 14 9 14 11 -6 22 -15 7 -20 15 -14 21 6 6 21 4
39 -6 16 -8 37 -15 47 -15 22 0 34 -27 18 -43 -9 -9 -16 -9 -31 1 -21 13 -25
6 -11 -17 8 -13 15 -13 50 -1 40 13 55 40 31 55 -20 12 -10 25 19 25 17 0 33
5 36 10 3 6 16 10 28 10 20 -1 21 -2 5 -14 -25 -18 -23 -46 3 -46 20 0 20 -1
-6 -32 -15 -18 -46 -53 -68 -78 -23 -25 -51 -55 -61 -68 l-19 -22 2971 0 2972
0 0 2051 0 2051 -42 -7 c-24 -4 -51 -11 -60 -16 -23 -12 -58 -11 -58 2 0 6
-14 -1 -31 -15 -17 -14 -35 -26 -40 -26 -5 0 -9 -7 -9 -15 0 -8 -6 -15 -12
-15 -9 0 -8 -4 2 -10 8 -5 10 -10 4 -10 -5 0 -32 -20 -59 -45 -26 -25 -60 -48
-74 -52 -14 -3 -35 -12 -46 -18 -11 -7 -40 -13 -64 -14 -25 -1 -47 -4 -50 -5
-3 -2 -29 0 -58 4 -46 8 -112 42 -121 63 -2 4 -16 7 -30 8 -24 0 -25 1 -7 9
16 7 13 9 -17 9 -27 1 -38 5 -38 16 0 8 -6 15 -12 16 -12 0 119 38 135 39 13
0 7 24 -28 114 -19 49 -32 92 -29 97 3 5 63 6 135 2 148 -7 145 -10 104 78
-47 104 -164 424 -157 430 6 6 129 -3 210 -15 40 -6 40 2 2 79 -16 33 -30 67
-30 75 0 9 -4 20 -9 25 -4 6 -30 67 -57 137 -58 151 -68 167 -92 151 -9 -7
-57 -34 -105 -60 l-88 -47 6 -51 7 -50 -23 30 c-13 17 -33 39 -44 50 -11 11
-26 31 -33 45 -29 60 -181 445 -177 449 3 2 13 -2 22 -11 16 -13 148 -45 258
-64 35 -6 38 -5 25 8 -8 8 -62 25 -120 37 -172 36 -160 29 -202 128 -125 294
-151 349 -167 361 -10 7 -37 60 -62 117 -43 103 -44 106 -84 116 -76 19 -222
70 -238 82 -8 7 -33 59 -56 116 -34 86 -39 106 -29 119 9 11 10 16 2 19 -30
10 -47 39 -99 168 -32 77 -63 156 -70 174 -10 27 -14 31 -17 15 -4 -19 10 -67
25 -91 11 -17 8 -17 -44 9 -24 12 -50 21 -56 20 -7 -2 -10 3 -7 12 4 9 -11 23
-45 41 -28 16 -48 31 -46 35 2 4 -14 12 -36 19 -26 8 -43 20 -49 36 -5 13 -18
26 -29 30 -12 3 -21 15 -21 26 0 14 -11 22 -45 30 -26 6 -45 17 -45 25 0 8 6
11 15 8 8 -4 15 -10 15 -15 0 -5 5 -9 12 -9 6 0 -2 14 -19 30 -19 19 -37 28
-46 24 -12 -4 -18 2 -22 23 -10 45 -27 83 -36 83 -5 0 -9 15 -9 33 0 38 -30
73 -55 64 -11 -5 -18 5 -26 39 -7 27 -20 49 -32 56 -11 6 -29 19 -39 28 -17
15 -17 18 -4 23 20 8 21 57 2 57 -8 0 -17 -4 -20 -9 -10 -16 -46 -20 -46 -5 0
8 6 14 14 14 8 0 18 5 21 11 5 7 -3 9 -21 7 -20 -2 -30 -10 -34 -28 l-6 -25
-17 32 c-9 18 -17 41 -17 53 0 11 -4 20 -9 20 -5 0 -16 24 -26 53 -27 83 -39
97 -88 97 -37 0 -58 -11 -165 -86 -68 -47 -121 -89 -117 -92 3 -4 52 -27 107
-52 98 -43 102 -47 119 -90 32 -78 120 -320 166 -455 25 -71 50 -137 57 -145
7 -8 27 -58 45 -110 18 -52 40 -110 48 -128 8 -19 12 -36 9 -39 -3 -3 -28 0
-56 7 -51 12 -52 12 -108 -26 -89 -59 -103 -74 -92 -95 13 -23 -1 -31 -36 -20
-16 5 -76 21 -134 36 -58 15 -115 34 -128 42 -22 14 -23 13 -20 -9 2 -14 11
-24 23 -26 11 -2 77 -21 148 -44 108 -34 130 -44 141 -67 21 -40 85 -235 92
-281 4 -22 10 -40 14 -40 7 0 12 -23 23 -112 3 -24 0 -28 -29 -34 -18 -3 -65
0 -103 8 -39 8 -71 11 -71 6 0 -5 6 -11 14 -14 8 -3 12 -12 9 -20 -3 -8 -1
-20 5 -27 5 -6 12 -25 14 -42 3 -16 9 -39 13 -50 5 -13 5 -17 -2 -10 -5 6 -20
42 -33 80 -33 102 -31 100 -97 101 -79 1 -433 79 -453 100 -11 12 -190 558
-190 581 0 25 -191 605 -197 599 -5 -5 24 -104 97 -326 49 -150 80 -248 80
-255 0 -3 -6 -5 -14 -5 -7 0 -18 17 -24 38 -15 54 -171 511 -186 547 -8 16
-33 88 -57 159 -29 85 -45 121 -47 105 -2 -14 2 -45 7 -69 10 -45 5 -73 -6
-32 -3 12 -9 22 -13 22 -5 0 -6 8 -3 19 3 10 0 22 -6 25 -7 5 -11 -2 -12 -16
0 -15 -3 -18 -6 -8 -3 8 -12 19 -20 23 -10 6 -13 17 -9 33 5 20 2 25 -21 30
-30 7 -63 31 -63 46 0 5 -9 18 -20 30 -11 12 -20 18 -20 14 0 -4 -10 2 -22 14
-12 11 -28 20 -35 20 -18 0 -16 10 5 33 19 22 20 22 -34 0 -14 -5 -16 -2 -10
20 3 14 1 29 -4 32 -6 4 -8 11 -5 16 4 5 2 9 -2 9 -5 0 -14 -9 -21 -20 -7 -11
-19 -20 -27 -20 -8 0 -15 -5 -15 -12 0 -9 -3 -9 -11 -1 -8 8 -21 5 -46 -13
-40 -27 -54 -24 -45 8 3 14 2 19 -6 14 -7 -4 -12 -14 -12 -22 0 -8 -7 -14 -17
-14 -19 0 -112 -57 -130 -80 -10 -12 -15 -13 -32 -2 -34 20 -38 17 -55 -38 -1
-3 -5 -11 -10 -19 -11 -18 -22 1 -77 137 -40 100 -54 116 -82 91 -48 -41 -209
-150 -215 -144 -4 3 2 13 13 21 11 8 34 25 50 39 17 13 40 32 53 42 58 45 106
92 93 93 -8 0 -19 -7 -25 -15 -8 -12 -34 -15 -111 -16 -55 -1 -95 -3 -88 -6 7
-2 9 -11 6 -19 -3 -8 0 -14 6 -14 6 0 11 -7 11 -15 0 -8 -4 -15 -10 -15 -5 0
-10 7 -10 15 0 18 -14 19 -41 4 -15 -8 -24 -7 -35 2 -25 21 -28 0 -6 -42 26
-49 26 -45 8 -52 -9 -4 -13 -1 -10 7 3 7 -5 21 -16 31 -20 18 -22 18 -31 2 -7
-12 -15 -14 -27 -8 -9 5 -32 15 -49 21 -18 7 -33 18 -33 26 0 20 -16 25 -44
14 -33 -12 -34 -30 -1 -24 17 3 27 -2 35 -16 6 -11 17 -20 25 -20 17 0 19 -9
6 -29 -6 -9 -16 -11 -27 -7 -13 5 -16 4 -9 -3 6 -6 19 -12 30 -14 25 -5 55
-16 77 -28 10 -5 25 -9 33 -9 8 0 15 -9 15 -19 0 -21 -62 -51 -105 -51 -13 0
-27 -5 -30 -10 -4 -7 3 -8 22 -4 l28 7 -24 -22 c-24 -21 -25 -21 -45 -2 -113
104 -126 114 -126 89 0 -7 -12 6 -26 30 -16 26 -32 42 -45 42 -10 0 -19 -4
-19 -10 0 -5 -10 -12 -23 -15 -13 -4 -31 -17 -41 -31 -11 -13 -25 -24 -33 -24
-9 0 -24 -12 -35 -26 -11 -14 -27 -23 -34 -20 -8 3 -13 0 -11 -7 1 -7 -11 -13
-27 -15 -17 -2 -30 -11 -33 -22 -3 -10 -10 -17 -17 -14 -7 3 -26 -9 -44 -25
-35 -34 -76 -48 -95 -33 -11 8 -81 23 -117 23 -8 1 -31 6 -50 13 -19 7 -41 11
-48 9 -6 -3 -12 2 -12 10 0 8 -12 27 -26 42 -42 45 -17 50 87 17 171 -54 207
-63 241 -60 l33 3 -3 130 c-1 72 -5 145 -8 163 l-5 32 -385 0 -385 0 2 -185
c1 -166 6 -204 23 -176 3 5 25 12 48 15 48 6 66 10 88 18 88 31 130 32 130 3
0 -7 6 -16 13 -18 11 -5 4 -8 -18 -7 -3 0 -20 -13 -38 -30 -17 -16 -35 -30
-39 -30 -4 0 -22 -15 -41 -32 -50 -49 -86 -78 -97 -78 -6 0 -10 -3 -10 -7 0
-5 -11 -16 -24 -25 -26 -19 -24 -23 -34 87 -8 92 -12 95 -120 87 -36 -3 -73 0
-85 6 -12 6 -31 12 -42 14 -18 3 -21 16 -32 143 -6 77 -12 150 -12 162 -1 20
-3 21 -28 8 -33 -17 -43 -33 -43 -67 0 -37 -13 -35 -27 2 -11 29 -36 40 -48
20 -3 -5 -15 -10 -26 -10 -16 0 -18 -5 -13 -26 6 -23 4 -25 -14 -20 -12 4 -26
0 -36 -10 -10 -9 -20 -14 -23 -11 -3 3 2 14 12 23 16 16 16 18 0 27 -12 6 -31
2 -67 -17 -27 -14 -57 -26 -65 -26 -14 0 -14 -2 1 -19 11 -13 14 -21 7 -26 -6
-3 -14 1 -17 9 -8 22 -34 20 -34 -2 0 -10 -6 -26 -13 -36 -12 -17 -14 -17 -20
-3 -3 9 -12 14 -19 12 -8 -3 -14 5 -16 22 -1 16 -3 37 -5 48 -2 16 10 24 63
42 36 13 73 23 82 23 10 0 33 9 53 20 20 11 46 20 60 20 13 0 27 5 30 11 4 6
13 8 20 5 8 -3 30 3 49 12 27 13 33 21 26 32 -5 8 -10 25 -10 36 0 19 -4 21
-44 17 -26 -3 -46 -1 -50 6 -4 6 -16 11 -27 11 -11 0 -19 7 -19 16 0 9 -6 14
-12 11 -7 -2 -12 -14 -10 -25 2 -13 -2 -22 -9 -22 -7 0 -9 3 -6 6 4 4 -8 14
-26 23 -22 11 -33 25 -38 48 -4 18 -12 40 -19 48 -15 18 -37 20 -42 4 -3 -8
-20 -8 -63 0 -89 17 -135 14 -141 -6z m476 -168 c0 -8 -7 -15 -15 -15 -9 0
-12 6 -9 15 4 8 10 15 15 15 5 0 9 -7 9 -15z m-810 -25 c0 -11 -4 -20 -10 -20
-5 0 -10 9 -10 20 0 11 5 20 10 20 6 0 10 -9 10 -20z m40 -15 c0 -8 -4 -15
-10 -15 -5 0 -10 7 -10 15 0 8 5 15 10 15 6 0 10 -7 10 -15z m1305 -34 c3 -5
1 -12 -5 -16 -5 -3 -10 1 -10 9 0 18 6 21 15 7z m-712 -164 c-9 -16 -24 9 -17
28 7 18 8 18 14 -1 4 -10 5 -23 3 -27z m2157 39 c0 -2 -7 -7 -16 -10 -8 -3
-12 -2 -9 4 6 10 25 14 25 6z m-2634 -81 c1 -41 -1 -45 -23 -45 -13 0 -26 7
-29 15 -12 31 -24 14 -24 -34 0 -33 -5 -53 -16 -62 -15 -13 -16 -11 -10 21 6
30 9 48 15 102 1 3 15 11 31 17 17 5 30 15 30 20 0 6 6 11 13 11 8 0 12 -16
13 -45z m2274 29 c0 -8 -5 -12 -10 -9 -6 4 -8 11 -5 16 9 14 15 11 15 -7z
m2794 -74 c7 -24 6 -24 -8 -6 -9 11 -16 29 -16 40 1 17 2 18 9 6 5 -8 12 -26
15 -40z m-4359 -52 c2 -7 6 -114 7 -238 3 -216 4 -225 23 -228 35 -7 40 -21
10 -32 -22 -9 -31 -7 -46 6 -16 14 -33 16 -114 10 -68 -5 -95 -4 -95 4 0 7 -8
9 -20 5 -18 -6 -20 -2 -21 37 -1 50 -6 118 -19 245 -10 105 -6 133 21 133 11
0 27 4 37 9 9 5 37 15 62 21 25 7 63 19 85 26 51 17 65 17 70 2z m4382 -30
c-3 -8 -6 -5 -6 6 -1 11 2 17 5 13 3 -3 4 -12 1 -19z m-4927 -479 c0 -11 -27
-12 -34 0 -3 4 -3 11 0 14 8 8 34 -3 34 -14z m-215 -9 c-3 -5 -15 -10 -26 -10
-10 0 -19 5 -19 10 0 6 12 10 26 10 14 0 23 -4 19 -10z m345 -15 c0 -8 -7 -15
-15 -15 -8 0 -15 7 -15 15 0 8 7 15 15 15 8 0 15 -7 15 -15z m394 -36 c-27
-29 -28 -30 -15 -77 23 -81 23 -89 1 -37 -12 28 -26 58 -31 68 -8 14 -2 25 28
55 44 43 59 35 17 -9z m-668 -67 c1 -7 2 -16 3 -22 0 -5 22 -10 49 -10 42 1
45 2 29 14 -18 14 -17 15 3 21 28 9 78 -12 85 -36 8 -25 35 -24 35 1 0 13 7
20 20 20 12 0 30 -9 42 -20 31 -29 48 -25 48 9 0 17 4 32 8 35 4 2 6 -11 4
-31 -3 -22 0 -38 9 -44 7 -4 15 -23 17 -41 3 -32 3 -32 -12 -11 -11 14 -23 19
-36 16 -26 -7 -26 -29 1 -43 11 -7 18 -14 15 -17 -3 -3 2 -12 12 -19 14 -11
15 -13 2 -14 -9 0 -21 5 -27 11 -8 8 -43 10 -102 7 l-91 -4 0 69 c0 62 -2 68
-17 62 -10 -4 -42 -10 -70 -13 l-53 -4 0 42 c0 29 4 40 13 38 6 -3 13 -10 13
-16z m382 -9 c-4 -22 -22 -20 -26 1 -2 10 3 16 13 16 10 0 15 -7 13 -17z m172
-268 c0 -8 -7 -15 -15 -15 -8 0 -15 7 -15 15 0 8 7 15 15 15 8 0 15 -7 15 -15z
m69 -78 c-2 -1 -13 -9 -24 -17 -19 -14 -19 -14 -6 3 7 9 18 17 24 17 6 0 8 -1
6 -3z m-89 -72 c-7 -8 -17 -15 -22 -15 -6 0 -5 7 2 15 7 8 17 15 22 15 6 0 5
-7 -2 -15z m-73 -63 c-10 -10 -17 -27 -18 -38 0 -16 -2 -16 -12 4 -9 21 -8 26
13 42 30 22 40 17 17 -8z m5823 -102 c0 -5 -7 -7 -15 -4 -8 4 -15 8 -15 10 0
2 7 4 15 4 8 0 15 -4 15 -10z m-1845 -215 c61 -14 124 -30 140 -35 17 -6 57
-14 89 -18 l58 -7 23 -65 c43 -123 51 -157 45 -176 -5 -13 -9 -6 -14 27 -8 57
-53 97 -86 79 -18 -10 -63 -7 -112 7 -10 2 -18 11 -18 19 0 8 -10 14 -25 14
-22 0 -25 -4 -25 -39 0 -30 -4 -40 -19 -44 -14 -3 -18 -1 -14 9 4 11 -5 14
-36 14 -34 0 -43 4 -51 23 -5 12 -9 16 -9 10 -1 -21 -21 -14 -21 7 0 11 -4 20
-8 20 -4 0 -8 10 -9 22 -2 22 -36 118 -55 152 -9 17 -7 18 14 12 12 -4 73 -18
133 -31z m1385 -20 c80 -19 153 -35 163 -35 10 0 85 -16 168 -36 99 -25 153
-42 158 -53 15 -27 299 -764 365 -944 43 -116 44 -131 14 -124 -44 11 -204 29
-278 31 -41 2 -133 11 -204 21 -121 17 -130 17 -164 1 -19 -9 -38 -13 -43 -9
-4 4 -44 107 -88 228 -45 121 -90 242 -101 269 -24 60 -25 73 -2 85 46 27 47
19 -22 223 -36 108 -79 231 -96 274 -31 80 -36 104 -22 104 4 0 72 -16 152
-35z m-5375 -40 c-39 -32 -54 -32 -18 0 15 13 33 24 38 25 6 0 -3 -11 -20 -25z
m-107 -86 c-38 -21 -78 -62 -78 -79 0 -27 -17 -34 -25 -9 -4 11 -5 22 -3 24
18 19 114 82 118 78 3 -2 -3 -9 -12 -14z m4389 -91 c-3 -8 -6 -5 -6 6 -1 11 2
17 5 13 3 -3 4 -12 1 -19z m140 -40 c-3 -8 -6 -5 -6 6 -1 11 2 17 5 13 3 -3 4
-12 1 -19z m-4600 -10 c-3 -8 -6 -5 -6 6 -1 11 2 17 5 13 3 -3 4 -12 1 -19z
m4610 -30 c-3 -8 -6 -5 -6 6 -1 11 2 17 5 13 3 -3 4 -12 1 -19z m-4552 -120
c3 -7 -1 -4 -9 6 -9 11 -16 29 -15 40 1 17 2 16 9 -6 4 -14 11 -32 15 -40z
m3345 -29 c0 -6 16 -44 35 -84 54 -111 135 -346 121 -350 -6 -2 -24 -6 -41
-10 -53 -11 -257 -93 -358 -145 -142 -71 -243 -148 -376 -285 -152 -158 -211
-236 -211 -281 0 -60 69 -224 111 -266 21 -21 41 -48 45 -60 8 -22 8 -22 13 6
4 21 14 32 36 39 17 6 46 21 65 34 19 12 40 23 47 23 6 0 24 12 40 28 16 15
46 41 67 57 34 28 62 69 58 88 -1 4 2 7 6 7 4 0 8 12 7 27 0 14 6 28 13 30 6
3 12 0 12 -7 0 -6 14 -41 31 -78 44 -93 109 -268 109 -292 0 -22 26 -28 32 -8
3 7 -2 25 -10 42 -23 45 -72 274 -72 335 0 59 0 59 144 188 77 69 191 130 260
139 l44 6 41 -60 c22 -33 44 -62 48 -64 21 -9 123 -241 123 -280 0 -10 7 -18
15 -18 16 0 20 12 8 24 -9 9 -43 117 -43 139 0 12 8 17 30 17 29 0 95 35 245
129 240 151 245 153 262 113 7 -15 23 -52 36 -82 13 -30 55 -146 93 -257 64
-193 69 -203 93 -203 15 0 95 -7 180 -14 127 -12 157 -17 168 -32 17 -24 62
-139 140 -364 35 -102 67 -188 71 -192 11 -10 78 -17 237 -24 83 -3 177 -10
210 -15 33 -6 86 -14 117 -19 97 -14 148 -69 212 -224 16 -39 16 -40 -16 -93
-18 -30 -53 -76 -78 -102 -41 -44 -52 -50 -120 -64 -41 -9 -154 -21 -250 -27
-96 -6 -200 -15 -230 -20 -73 -12 -283 -35 -293 -32 -20 6 -116 -31 -186 -71
-143 -82 -571 -317 -578 -317 -2 0 -20 -11 -41 -23 -20 -13 -77 -46 -127 -72
-49 -26 -162 -87 -250 -135 -88 -48 -189 -103 -225 -123 -166 -89 -209 -112
-260 -142 -30 -18 -116 -65 -190 -105 -74 -40 -160 -87 -190 -105 -30 -18 -89
-50 -130 -72 -185 -98 -347 -187 -500 -273 -91 -51 -190 -106 -220 -123 -30
-16 -75 -42 -100 -57 -25 -15 -105 -62 -178 -105 -74 -43 -143 -91 -155 -107
-11 -15 -27 -28 -36 -28 -21 0 -61 40 -61 61 0 9 -6 39 -14 65 -18 61 -41 191
-35 201 2 4 8 7 13 5 9 -3 31 25 57 73 9 16 25 32 35 35 24 6 108 60 112 71 2
5 10 9 18 9 8 0 14 4 14 8 0 4 23 16 51 26 44 16 50 22 46 41 -3 17 3 27 22
36 14 7 35 21 46 30 19 17 24 19 45 19 5 0 9 5 7 12 -1 6 15 16 35 22 21 6 47
19 58 29 11 9 23 17 26 17 3 0 21 16 40 35 19 20 38 33 43 30 5 -2 12 2 15 11
9 23 7 28 -6 16 -7 -5 -24 -13 -38 -17 -20 -5 -19 -2 11 18 19 14 61 39 93 56
47 26 61 29 79 21 20 -10 21 -10 4 3 -16 14 -16 16 15 34 18 11 74 45 123 75
50 30 117 70 151 89 141 79 263 155 269 167 9 23 -43 184 -163 501 l-36 93
-89 -7 c-86 -6 -93 -9 -171 -59 -45 -28 -142 -87 -216 -130 -203 -118 -469
-276 -525 -312 -105 -67 -382 -233 -422 -253 l-42 -21 -15 33 c-27 59 -74 201
-91 275 -16 69 -16 74 1 93 9 10 17 31 18 46 1 23 5 28 24 26 12 -2 22 2 22 7
0 6 -6 10 -12 10 -8 0 -5 7 6 15 11 8 29 12 42 9 18 -5 34 6 77 52 64 66 78
66 107 -1 11 -25 24 -45 30 -45 13 0 13 6 -4 33 -18 28 -31 107 -18 107 6 0
18 26 27 58 9 31 25 80 36 107 10 28 19 54 19 58 0 11 38 47 50 47 6 0 10 6
10 14 0 7 9 25 21 39 11 15 19 32 18 39 -3 28 2 37 36 58 19 12 40 30 45 41
10 17 8 17 -25 -2 -53 -32 -44 1 28 94 16 20 25 37 20 37 -15 0 113 115 151
134 41 22 49 17 63 -34 3 -14 20 -56 38 -95 17 -38 40 -90 50 -115 19 -46 45
-83 31 -45 -19 52 -46 196 -46 250 0 52 2 57 15 45 18 -19 82 -175 125 -303
17 -54 35 -97 39 -95 36 15 181 116 181 125 0 16 -27 99 -46 140 -8 17 -14 37
-15 45 0 7 -7 -4 -15 -24 -19 -45 -39 -54 -66 -28 -12 11 -25 20 -30 20 -17 0
-7 43 15 61 28 23 63 24 76 2 17 -30 12 2 -8 48 -10 24 -22 67 -26 96 -4 29
-13 57 -20 63 -7 6 -13 28 -13 49 0 21 -9 63 -20 94 -16 49 -17 60 -5 76 11
17 11 20 -4 23 -13 3 15 28 87 82 58 43 110 81 117 83 19 8 16 50 -11 135 -21
65 -24 90 -20 170 6 117 14 180 24 193 7 9 22 70 26 105 3 33 17 60 34 65 22
7 57 45 42 45 -7 0 -12 5 -12 10 0 6 7 10 15 10 8 0 15 4 15 8 0 8 121 92 133
92 4 0 16 8 26 18 27 24 39 33 91 68 57 39 144 99 290 201 227 159 414 282
422 277 4 -3 8 -10 8 -15z m-3391 -116 c-100 -105 -121 -155 -74 -173 23 -9
25 -15 25 -65 0 -37 4 -55 13 -55 7 0 8 -3 2 -8 -18 -13 -34 -70 -21 -76 6 -2
3 -5 -6 -5 -20 -1 -22 -5 -9 -29 13 -24 24 -179 12 -167 -15 16 -64 142 -147
383 -19 53 -9 72 57 117 24 17 50 36 59 42 33 28 116 82 125 82 5 1 -11 -20
-36 -46z m-419 -253 c0 -11 -2 -20 -4 -20 -2 0 -6 9 -9 20 -3 11 -1 20 4 20 5
0 9 -9 9 -20z m-132 -2 c-6 -18 -28 -21 -28 -4 0 9 7 16 16 16 9 0 14 -5 12
-12z m82 -7 c0 -26 -10 -51 -21 -51 -5 0 -9 16 -9 35 0 24 5 35 15 35 8 0 15
-9 15 -19z m-1 -109 c0 -15 -4 -36 -8 -47 -6 -15 -9 -9 -14 25 -3 24 -3 48 -1
52 10 16 24 -3 23 -30z m-59 -1002 c0 -5 -4 -10 -10 -10 -5 0 -10 5 -10 10 0
6 5 10 10 10 6 0 10 -4 10 -10z m67 -126 c-3 -3 -12 -4 -19 -1 -8 3 -5 6 6 6
11 1 17 -2 13 -5z m123 -254 c0 -29 -17 -33 -22 -5 -3 13 -3 27 0 29 9 10 22
-5 22 -24z m167 -377 c5 -29 3 -33 -16 -33 -19 0 -21 5 -20 68 l1 67 15 -35
c8 -19 17 -50 20 -67z m932 -1912 c11 -7 9 -11 -8 -20 -17 -10 -25 -8 -43 9
l-22 20 30 0 c16 0 35 -4 43 -9z m306 -41 c4 -6 -15 -10 -52 -9 -51 1 -54 2
-23 9 52 11 68 11 75 0z m-175 -22 c0 -5 -8 -8 -18 -8 -26 0 -72 -23 -72 -36
0 -14 -33 -24 -83 -24 -53 0 -43 23 14 32 24 4 50 15 58 25 10 12 28 18 58 18
23 0 43 -3 43 -7z m221 -20 c20 -15 41 -21 64 -19 67 5 27 -61 -43 -72 -55 -9
-54 7 1 26 35 13 37 16 16 16 -14 1 -34 10 -44 21 -10 11 -28 20 -41 20 -26 0
-40 16 -22 23 25 10 39 7 69 -15z m-116 -27 c7 -12 -12 -24 -25 -16 -11 7 -4
25 10 25 5 0 11 -4 15 -9z m-357 -32 c-18 -12 -55 -11 -63 0 -6 11 31 19 58
12 15 -3 16 -6 5 -12z m108 -9 c58 0 72 -14 24 -25 -44 -10 -46 -23 -5 -31 22
-4 33 -10 28 -15 -8 -8 -110 -49 -120 -49 -2 0 -3 13 -3 29 0 17 -4 33 -10 36
-11 7 -14 48 -3 59 4 3 13 4 21 1 7 -3 38 -5 68 -5z m-169 -26 c-3 -3 -12 -4
-19 -1 -8 3 -5 6 6 6 11 1 17 -2 13 -5z m-1078 -13 c11 -7 10 -11 -5 -19 -27
-13 -48 -4 -33 14 13 16 19 17 38 5z m1711 -6 c0 -8 -7 -15 -15 -15 -16 0 -20
12 -8 23 11 12 23 8 23 -8z m-202 -88 c3 -15 -1 -17 -25 -12 -55 13 -59 15
-43 26 23 15 64 6 68 -14z m-230 -23 c4 -27 -18 -36 -69 -28 -44 7 -46 10 -22
36 24 27 87 21 91 -8z m302 6 c0 -5 -12 -10 -26 -10 -14 0 -23 4 -19 10 3 6
15 10 26 10 10 0 19 -4 19 -10z m470 -40 c0 -5 -4 -10 -10 -10 -5 0 -10 5 -10
10 0 6 5 10 10 10 6 0 10 -4 10 -10z m-822 -51 c4 -30 -7 -35 -101 -44 -52 -5
-57 -4 -57 15 0 11 -7 20 -15 20 -8 0 -15 5 -15 10 0 6 19 10 43 10 23 0 49 5
57 10 8 6 31 9 50 8 30 -3 35 -7 38 -29z m292 22 c0 -14 -37 -23 -61 -16 -17
6 -19 9 -8 16 19 12 69 11 69 0z m-580 -21 c0 -5 -4 -10 -10 -10 -5 0 -10 5
-10 10 0 6 5 10 10 10 6 0 10 -4 10 -10z m-936 -26 c17 -7 22 -34 6 -34 -5 0
-10 5 -10 10 0 6 -12 10 -26 10 -14 0 -23 4 -19 10 7 11 26 13 49 4z m1534
-31 c-4 -21 -53 -30 -72 -14 -8 6 -46 13 -86 16 -116 6 -94 15 39 15 111 0
122 -2 119 -17z m-1528 -33 c0 -5 -7 -10 -15 -10 -8 0 -15 5 -15 10 0 6 7 10
15 10 8 0 15 -4 15 -10z m1370 0 c0 -5 -4 -10 -10 -10 -5 0 -10 5 -10 10 0 6
5 10 10 10 6 0 10 -4 10 -10z m-257 -78 c10 -8 34 -11 66 -9 28 3 54 1 57 -5
10 -16 -4 -21 -63 -19 -39 1 -60 6 -66 16 -4 8 -15 15 -24 15 -10 0 -13 6 -9
16 3 9 6 21 7 27 0 7 4 3 9 -8 4 -12 15 -26 23 -33z m380 31 c4 -2 7 -8 7 -14
0 -12 -147 -12 -152 1 -1 5 -27 11 -55 12 -29 1 -53 6 -53 11 0 9 237 0 253
-10z m-1485 -5 c-3 -7 -14 -17 -26 -23 -12 -5 -22 -13 -22 -17 0 -5 -11 -8
-25 -8 -18 0 -25 5 -25 20 0 15 7 20 24 20 14 0 28 5 31 10 9 15 47 12 43 -2z
m62 -60 c0 -22 -7 -23 -26 -4 -19 20 -18 25 6 23 12 -1 20 -8 20 -19z m1150
-28 c0 -5 -4 -10 -10 -10 -5 0 -10 5 -10 10 0 6 5 10 10 10 6 0 10 -4 10 -10z
m-31 -14 c-11 -9 -69 -14 -69 -6 0 6 17 10 37 10 20 0 34 -2 32 -4z m167 -7
c3 -6 0 -17 -8 -25 -11 -12 -19 -12 -41 -2 -34 16 -34 26 1 31 15 2 30 5 34 6
4 0 10 -4 14 -10z m254 -36 c0 -13 -77 -46 -89 -39 -6 4 -29 8 -51 8 -46 0
-66 17 -23 19 59 2 94 7 100 13 9 9 63 7 63 -1z m-444 -18 c-21 -16 -100 -20
-157 -8 l-34 7 30 7 c17 4 64 7 105 7 68 1 73 0 56 -13z m354 -105 c0 -5 -19
-10 -42 -9 -37 1 -39 2 -18 9 36 12 60 12 60 0z m465 -10 c-3 -5 -10 -10 -16
-10 -5 0 -9 5 -9 10 0 6 7 10 16 10 8 0 12 -4 9 -10z m-706 -34 c9 -11 4 -22
-25 -55 -36 -40 -39 -41 -98 -41 -67 0 -90 9 -81 31 5 14 69 39 99 39 9 0 20
9 26 20 13 23 62 27 79 6z m404 -33 c9 -3 17 -14 17 -25 0 -16 -5 -19 -22 -14
-13 3 -38 6 -57 6 l-34 0 24 24 c13 13 31 22 39 19 8 -3 23 -8 33 -10z m-35
-70 c-10 -2 -26 -2 -35 0 -10 3 -2 5 17 5 19 0 27 -2 18 -5z m387 -13 c-3 -5
-23 -10 -43 -9 -33 1 -34 2 -12 9 36 12 62 12 55 0z m-341 -39 c7 -11 -104
-24 -127 -15 -10 3 -17 10 -17 15 0 12 137 12 144 0z m436 -1 c0 -12 -45 -24
-59 -15 -22 13 -10 25 24 25 19 0 35 -4 35 -10z m-902 -20 c51 -6 105 -16 120
-24 l27 -14 -25 -1 c-98 -2 -263 14 -267 26 -2 6 6 13 19 16 13 2 25 5 28 5 3
1 47 -3 98 -8z m587 -20 c3 -5 1 -10 -4 -10 -6 0 -11 5 -11 10 0 6 2 10 4 10
3 0 8 -4 11 -10z m-740 -20 c-3 -5 -10 -10 -16 -10 -5 0 -9 5 -9 10 0 6 7 10
16 10 8 0 12 -4 9 -10z m395 1 c0 -22 -27 -31 -54 -18 -14 8 -23 17 -19 20 10
10 73 8 73 -2z m635 -21 c3 -5 0 -10 -7 -10 -7 0 -23 -3 -35 -6 -13 -4 -23 -2
-23 4 0 6 10 13 23 15 12 2 25 5 29 6 4 0 10 -3 13 -9z m-2050 -20 c-3 -5 -10
-10 -16 -10 -5 0 -9 5 -9 10 0 6 7 10 16 10 8 0 12 -4 9 -10z m1895 -5 c0 -8
-9 -15 -20 -15 -11 0 -20 7 -20 15 0 8 9 15 20 15 11 0 20 -7 20 -15z m-910
-171 c0 -11 -45 -43 -62 -44 -26 0 -33 21 -13 37 19 13 75 19 75 7z m60 -30
c0 -9 -7 -14 -17 -12 -25 5 -28 28 -4 28 12 0 21 -6 21 -16z"/>
<path d="M456 6723 c-4 -9 -2 -21 4 -27 7 -7 10 -2 10 17 0 31 -5 34 -14 10z"/>
<path d="M552 6680 c0 -14 2 -19 5 -12 2 6 2 18 0 25 -3 6 -5 1 -5 -13z"/>
<path d="M5026 5891 c-7 -10 9 -51 20 -51 5 0 -3 50 -10 57 -2 2 -7 0 -10 -6z"/>
<path d="M4711 5866 c-9 -11 -8 -15 5 -20 25 -10 84 -7 84 4 0 6 -13 10 -30
10 -16 0 -30 5 -30 10 0 14 -16 12 -29 -4z"/>
<path d="M4717 5829 c7 -7 15 -10 18 -7 3 3 -2 9 -12 12 -14 6 -15 5 -6 -5z"/>
<path d="M4055 4592 c-56 -37 -131 -83 -168 -102 -101 -52 -101 -51 -63 -145
18 -44 48 -126 67 -182 19 -57 38 -103 42 -103 5 0 52 24 105 53 53 29 134 69
180 87 62 25 82 38 79 50 -3 8 -23 67 -45 130 -22 63 -50 152 -63 198 -12 45
-25 82 -28 82 -3 0 -51 -31 -106 -68z m99 -83 c33 -15 59 -71 51 -109 -4 -16
-21 -41 -38 -56 -19 -16 -34 -39 -37 -58 -6 -36 -37 -48 -56 -21 -11 15 -14
15 -33 -4 -12 -12 -25 -21 -31 -21 -14 0 -50 38 -50 53 1 19 23 43 47 51 22 7
22 9 8 36 -18 35 -18 57 -1 89 25 46 88 63 140 40z"/>
<path d="M4387 4303 c-12 -12 -7 -33 8 -33 17 0 19 9 7 28 -5 7 -11 9 -15 5z"/>
<path d="M4444 3362 c-5 -4 -19 -28 -32 -53 -57 -114 -203 -241 -476 -414 -48
-31 -86 -58 -84 -61 14 -14 375 187 486 271 75 56 139 129 151 170 13 49 -17
107 -45 87z"/>
<path d="M2601 3148 c-1 -15 3 -29 8 -33 13 -7 26 16 14 24 -6 3 -13 13 -16
21 -3 9 -6 4 -6 -12z"/>
<path d="M2810 1990 c-14 -11 -20 -20 -14 -20 7 0 22 9 35 20 31 25 12 26 -21
0z"/>
<path d="M2740 1960 c0 -13 11 -13 30 0 12 8 11 10 -7 10 -13 0 -23 -4 -23
-10z"/>
<path d="M1276 7978 c-3 -13 -6 -35 -6 -50 0 -14 -6 -28 -12 -31 -22 -7 -1
-19 21 -12 18 5 21 14 21 61 0 55 -13 72 -24 32z"/>
<path d="M1546 7988 c-11 -6 -15 -16 -11 -29 8 -25 -10 -24 -35 1 -28 28 -40
25 -40 -12 1 -27 2 -30 11 -15 14 24 32 22 24 -3 -6 -18 -2 -20 54 -20 33 0
62 -4 66 -9 3 -5 43 -9 89 -8 47 2 82 -1 80 -5 -3 -5 21 -6 53 -4 32 2 64 -1
70 -6 7 -6 46 -9 88 -6 41 2 75 0 75 -5 0 -10 130 1 144 12 6 4 18 9 26 9 8 0
31 5 50 11 124 34 149 38 225 33 44 -3 109 -4 144 -3 36 0 67 -3 70 -8 3 -5
47 -10 96 -12 l90 -4 3 48 3 47 -395 0 c-306 0 -396 -3 -400 -12 -5 -10 -7
-10 -12 0 -3 6 -14 12 -24 12 -13 0 -17 -5 -13 -20 3 -13 0 -20 -8 -20 -22 0
-42 17 -35 29 5 8 -33 11 -133 11 -102 0 -141 -3 -144 -12 -4 -10 -7 -10 -18
0 -18 17 -29 15 -29 -5 0 -15 -1 -15 -18 0 -22 20 -93 24 -74 5 7 -7 12 -18
12 -25 0 -20 -28 -15 -35 6 -7 24 -26 32 -49 19z m463 -37 c-15 -5 -22 6 -14
19 6 9 10 9 16 -1 5 -8 4 -15 -2 -18z m-319 9 c0 -12 -28 -25 -36 -17 -9 9 6
27 22 27 8 0 14 -5 14 -10z m470 0 c0 -5 -5 -20 -12 -34 -8 -19 -14 -23 -23
-16 -10 8 -10 16 -1 35 11 24 36 35 36 15z m-170 -36 c0 -8 -4 -12 -10 -9 -5
3 -10 10 -10 16 0 5 5 9 10 9 6 0 10 -7 10 -16z m100 -18 c0 -3 -4 -8 -10 -11
-5 -3 -10 -1 -10 4 0 6 5 11 10 11 6 0 10 -2 10 -4z"/>
<path d="M3738 7963 c6 -2 18 -2 25 0 6 3 1 5 -13 5 -14 0 -19 -2 -12 -5z"/>
<path d="M1110 7930 c0 -5 9 -10 20 -10 11 0 20 5 20 10 0 6 -9 10 -20 10 -11
0 -20 -4 -20 -10z"/>
<path d="M4281 7924 c0 -11 3 -14 6 -6 3 7 2 16 -1 19 -3 4 -6 -2 -5 -13z"/>
<path d="M310 7897 c14 -8 27 -12 30 -10 7 6 -23 23 -40 23 -8 0 -4 -6 10 -13z"/>
<path d="M361 7883 c-6 -90 -5 -106 7 -111 10 -3 12 11 10 62 -4 68 -14 96
-17 49z"/>
<path d="M431 7884 c0 -11 3 -14 6 -6 3 7 2 16 -1 19 -3 4 -6 -2 -5 -13z"/>
<path d="M1126 7881 c-3 -5 1 -11 9 -15 8 -3 15 -1 15 4 0 13 -18 22 -24 11z"/>
<path d="M2480 7749 c0 -29 2 -50 5 -47 10 9 13 88 4 94 -5 3 -9 -18 -9 -47z"/>
<path d="M2745 7765 c-27 -12 -28 -13 -7 -14 29 -1 36 2 38 17 1 6 2 12 1 12
-1 -1 -15 -7 -32 -15z"/>
<path d="M2560 7735 c-10 -13 -9 -15 9 -15 12 0 21 6 21 15 0 8 -4 15 -9 15
-5 0 -14 -7 -21 -15z"/>
<path d="M2590 7695 c0 -8 5 -15 10 -15 6 0 10 7 10 15 0 8 -4 15 -10 15 -5 0
-10 -7 -10 -15z"/>
<path d="M2638 7663 c7 -3 16 -2 19 1 4 3 -2 6 -13 5 -11 0 -14 -3 -6 -6z"/>
<path d="M4002 7616 c1 -14 5 -23 9 -20 7 4 0 44 -7 44 -2 0 -3 -11 -2 -24z"/>
<path d="M5320 7615 c0 -16 4 -24 11 -20 6 4 8 13 5 21 -7 17 6 18 23 2 11
-11 13 -10 9 2 -3 8 -14 16 -26 18 -18 3 -22 -2 -22 -23z"/>
<path d="M4017 7565 c-3 -17 -8 -41 -11 -55 l-7 -25 11 25 c6 13 16 28 22 31
8 5 9 14 1 31 -10 23 -10 23 -16 -7z"/>
<path d="M80 7525 c-10 -12 -10 -15 4 -15 9 0 16 7 16 15 0 8 -2 15 -4 15 -2
0 -9 -7 -16 -15z"/>
<path d="M2 7470 c0 -14 2 -19 5 -12 2 6 2 18 0 25 -3 6 -5 1 -5 -13z"/>
<path d="M4561 7440 c0 -30 106 -334 118 -338 6 -2 -5 40 -25 95 -20 54 -40
109 -44 123 -23 69 -49 133 -49 120z"/>
<path d="M50 7401 c0 -15 6 -21 21 -21 14 0 19 5 17 17 -5 26 -38 29 -38 4z"/>
<path d="M6051 6974 c0 -11 3 -14 6 -6 3 7 2 16 -1 19 -3 4 -6 -2 -5 -13z"/>
<path d="M10 6760 c20 -13 40 -13 40 0 0 6 -12 10 -27 10 -22 0 -25 -2 -13
-10z"/>
<path d="M4840 6621 c0 -5 5 -13 10 -16 6 -3 10 -2 10 4 0 5 -4 13 -10 16 -5
3 -10 2 -10 -4z"/>
<path d="M30 5950 c0 -5 -7 -10 -15 -10 -8 0 -15 -7 -15 -15 0 -10 10 -15 29
-15 31 0 46 21 28 39 -14 14 -27 14 -27 1z"/>
<path d="M95 5910 c3 -5 8 -10 11 -10 2 0 4 5 4 10 0 6 -5 10 -11 10 -5 0 -7
-4 -4 -10z"/>
<path d="M7624 4698 c-6 -10 3 -36 43 -125 33 -75 134 -336 136 -352 2 -12
-16 -14 -98 -12 -55 1 -110 5 -121 7 -12 3 -25 1 -29 -6 -6 -9 29 -112 45
-132 5 -7 179 15 333 42 l67 12 0 143 c0 79 -4 146 -9 149 -18 11 -91 173 -85
189 3 9 20 19 37 23 47 10 19 19 -138 43 -77 12 -148 24 -157 26 -10 2 -21 -1
-24 -7z"/>
<path d="M0 1057 c0 -35 14 -41 45 -21 19 12 23 19 14 25 -7 4 -17 5 -21 2 -5
-2 -15 1 -23 7 -13 10 -15 8 -15 -13z"/>
<path d="M2153 178 c-13 -6 -23 -17 -23 -23 0 -18 -32 -28 -41 -14 -5 8 -10 5
-18 -9 -15 -29 -15 -29 19 -34 25 -4 35 1 57 31 15 20 31 38 35 39 10 5 10 22
1 21 -5 0 -18 -5 -30 -11z"/>
<path d="M1502 158 c6 -18 25 -20 31 -3 5 10 0 15 -14 15 -12 0 -19 -5 -17
-12z"/>
<path d="M1366 144 c-11 -7 -16 -17 -13 -21 4 -4 15 1 24 10 22 21 14 30 -11
11z"/>
<path d="M1587 154 c-8 -8 1 -24 14 -24 5 0 9 7 9 15 0 15 -12 20 -23 9z"/>
<path d="M1753 153 c-13 -2 -23 -9 -23 -14 0 -5 -8 -9 -17 -9 -24 0 -49 -17
-40 -27 5 -4 12 -1 16 6 7 10 13 11 30 2 17 -10 20 -9 14 5 -4 10 -1 15 8 14
33 -5 60 1 57 12 -5 14 -15 17 -45 11z"/>
<path d="M1909 156 c-3 -3 -20 -7 -39 -9 -48 -5 -81 -24 -74 -42 7 -17 34 -20
34 -4 0 8 5 8 15 -1 21 -17 19 -29 -7 -39 -15 -6 -32 -4 -50 5 -36 19 -38 18
-38 -11 0 -22 -4 -25 -40 -25 -22 0 -40 -4 -40 -9 0 -12 94 -21 101 -9 4 7 9
6 13 -1 5 -7 46 -11 113 -11 104 0 105 0 82 18 -13 10 -39 24 -56 31 -41 17
-41 26 -2 40 44 15 51 14 45 -7 -4 -12 3 -21 25 -31 37 -16 51 -6 21 15 -27
19 -28 34 -2 34 11 0 21 5 22 10 4 30 1 35 -19 36 -14 1 -20 -3 -16 -13 4 -11
1 -12 -21 -2 -14 7 -26 16 -26 21 0 8 -33 11 -41 4z m-9 -46 c0 -13 -7 -20
-20 -20 -19 0 -27 20 -13 33 13 14 33 6 33 -13z"/>
<path d="M1510 115 c-16 -20 -14 -21 38 -30 34 -5 42 -4 42 9 0 9 -6 13 -15
10 -8 -4 -17 1 -21 10 -8 20 -28 21 -44 1z"/>
<path d="M1618 106 c-7 -37 52 -61 90 -37 11 7 10 10 -3 15 -9 3 -25 6 -36 6
-12 0 -19 7 -19 20 0 28 -27 25 -32 -4z"/>
<path d="M1550 55 c0 -8 5 -15 10 -15 6 0 10 7 10 15 0 8 -4 15 -10 15 -5 0
-10 -7 -10 -15z"/>
<path d="M1487 43 c-4 -3 -7 -10 -7 -14 0 -9 39 1 46 12 6 10 -29 12 -39 2z"/>
</g>
</svg>
